<?xml version="1.0" encoding="UTF-8"?>
<svg width="752pt" height="752pt" version="1.1" viewBox="0 0 752 752" xmlns="http://www.w3.org/2000/svg">
 <defs>
  <clipPath id="b">
   <path d="m305 139.21h138v138.79h-138z"/>
  </clipPath>
  <clipPath id="a">
   <path d="m152 593h448v19.793h-448z"/>
  </clipPath>
 </defs>
 <g clip-path="url(#b)">
  <path d="m373.99 277.75c37.859 0 68.422-31.109 68.422-69.332 0-38.277-30.566-69.211-68.422-69.211-37.859 0-68.461 30.934-68.461 69.211 0 38.223 30.602 69.332 68.461 69.332z" fill="#fff"/>
 </g>
 <path d="m440.56 294.61c31.305 1.1172 44.48 26.477 44.48 26.477l101.07 140.22c4.1836 6.2188 6.6211 13.828 6.6211 22.039 0 21.805-17.465 39.508-39.039 39.508-5.1602 0-9.8555-1.1562-14.312-2.8594l-61.012-17.23v61.551l-211.8 0.003906v-61.547l-61.016 17.219c-4.3008 1.7148-9.1445 2.8711-14.348 2.8711-21.578 0-39.004-17.703-39.004-39.508 0-8.2148 2.4102-15.832 6.7773-22.051l101-140.21s13.254-25.359 44.449-26.473l136.14 0.003906zm-68.074 226.73 79.031-26.551-1.7305-0.35156c-54.582-16.176-33.367-89.062 21.09-72.801l7.4961 2.6367 0.003906-82.254-105.88 34.949-105.93-34.953v82.246l7.457-2.6328c54.547-16.266 75.797 56.617 21.215 72.793l-1.7773 0.36328z" fill="#fff"/>
 <g clip-path="url(#a)">
  <path d="m590.06 612.79c5.4141 0 9.7539-4.3789 9.7539-9.8477 0-5.5-4.3438-9.8516-9.7539-9.8516h-427.45c-5.293 0-9.7461 4.3516-9.7461 9.8516 0 5.4609 4.4531 9.8477 9.7461 9.8477z" fill="#fff"/>
 </g>
</svg>
